<svg xmlns="http://www.w3.org/2000/svg" viewBox="0 0 128 128" enable-background="new 0 0 128 128"><g fill="#61DAFB"><circle cx="64" cy="64" r="11.4"/><path d="M107.3 45.2c-2.2-.8-4.5-1.6-6.9-2.3.6-2.6.9-5.2 1-7.9 0-21.7-22.2-40.8-49.4-40.8-27.2 0-49.4 19.1-49.4 40.8 0 2.7.3 5.3.9 7.9-2.4.7-4.7 1.5-6.9 2.3C5.5 48 1 54.2 1 61.1c0 11 5.9 20.6 15.2 25.5-.5 1.8-.7 3.7-.7 5.6 0 18.8 20.3 34.1 45.3 34.1 25 0 45.3-15.3 45.3-34.1 0-1.9-.2-3.8-.7-5.6 9.3-4.9 15.2-14.5 15.2-25.5 0-6.9-4.5-13.1-11.3-16.4z" opacity=".4"/><path d="M107.3 45.2c-2.2-.8-4.5-1.6-6.9-2.3.6-2.6.9-5.2 1-7.9 0-21.7-22.2-40.8-49.4-40.8-27.2 0-49.4 19.1-49.4 40.8 0 2.7.3 5.3.9 7.9-2.4.7-4.7 1.5-6.9 2.3C5.5 48 1 54.2 1 61.1c0 11 5.9 20.6 15.2 25.5-.5 1.8-.7 3.7-.7 5.6 0 18.8 20.3 34.1 45.3 34.1 25 0 45.3-15.3 45.3-34.1 0-1.9-.2-3.8-.7-5.6 9.3-4.9 15.2-14.5 15.2-25.5 0-6.9-4.5-13.1-11.3-16.4z" fill="#61DAFB"/></g></svg>